<?xml version="1.0" standalone="no"?><!DOCTYPE svg PUBLIC "-//W3C//DTD SVG 1.1//EN" "http://www.w3.org/Graphics/SVG/1.1/DTD/svg11.dtd"><svg t="1611798063144" class="icon" viewBox="0 0 1024 1024" version="1.1" xmlns="http://www.w3.org/2000/svg" p-id="5420" xmlns:xlink="http://www.w3.org/1999/xlink" width="200" height="200"><defs><style type="text/css"></style></defs><path d="M641.6 361.8h-328c-15.7 0-28.5-12.8-28.5-28.5s12.8-28.5 28.5-28.5h328c15.7 0 28.5 12.8 28.5 28.5s-12.7 28.5-28.5 28.5zM441.6 534.4h-128c-15.7 0-28.5-12.8-28.5-28.5s12.8-28.5 28.5-28.5h128c15.7 0 28.5 12.8 28.5 28.5s-12.7 28.5-28.5 28.5zM692 544.5c39.6 0 76.8 15.4 104.7 43.4 28 28 43.4 65.2 43.4 104.7 0 39.6-15.4 76.8-43.4 104.7-28 28-65.2 43.4-104.7 43.4-39.6 0-76.8-15.4-104.7-43.4s-43.4-65.2-43.4-104.7c0-39.6 15.4-76.8 43.4-104.7s65.1-43.4 104.7-43.4m0-57c-113.3 0-205.1 91.8-205.1 205.1S578.7 897.7 692 897.7s205.1-91.8 205.1-205.1c0-113.2-91.8-205.1-205.1-205.1zM380.6 707h-67c-15.7 0-28.5-12.8-28.5-28.5s12.8-28.5 28.5-28.5h67c15.7 0 28.5 12.8 28.5 28.5S396.4 707 380.6 707z" fill="#6B6B6B" p-id="5421"></path><path d="M764.1 675.2h-51.2c-2.4 0-4.3-1.9-4.3-4.3v-58.4c0-15.7-12.8-28.5-28.5-28.5s-28.5 12.8-28.5 28.5v93.1c0 14.8 12 26.8 26.8 26.8h30.2v-0.1h55.5c15.7 0 28.5-12.8 28.5-28.5 0-15.8-12.7-28.6-28.5-28.6z" fill="#6B6B6B" p-id="5422"></path><path d="M440 840.8H183.9V183.2h583.4V391h57V172.7c0-25.7-20.8-46.5-46.5-46.5H173.4c-25.7 0-46.5 20.8-46.5 46.5v678.6c0 25.7 20.8 46.5 46.5 46.5H440v-57z" fill="#6B6B6B" p-id="5423"></path></svg>