<?xml version="1.0" standalone="no"?><!DOCTYPE svg PUBLIC "-//W3C//DTD SVG 1.1//EN" "http://www.w3.org/Graphics/SVG/1.1/DTD/svg11.dtd"><svg t="1616742909325" class="icon" viewBox="0 0 1024 1024" version="1.1" xmlns="http://www.w3.org/2000/svg" p-id="8651" xmlns:xlink="http://www.w3.org/1999/xlink" width="128" height="128"><defs><style type="text/css"></style></defs><path d="M240.896 487.424L455.253333 273.109333l131.157334 133.546667 118.4-118.314667a21.333333 21.333333 0 0 1 27.221333-2.474666l2.986667 2.474666a21.333333 21.333333 0 0 1 2.432 27.178667l-2.474667 2.986667-148.821333 148.778666-131.2-133.589333-183.893334 183.893333a21.333333 21.333333 0 0 1-27.178666 2.474667l-2.986667-2.474667a21.333333 21.333333 0 0 1-2.432-27.221333l2.432-2.944zM289.194667 613.930667a21.333333 21.333333 0 0 1 20.992 17.493333l0.341333 3.84V768a21.333333 21.333333 0 0 1-42.325333 3.84L267.861333 768v-132.736a21.333333 21.333333 0 0 1 21.333334-21.333333z" p-id="8652"></path><path d="M449.578667 448a21.333333 21.333333 0 0 1 20.992 17.493333l0.341333 3.84v298.666667a21.333333 21.333333 0 0 1-42.325333 3.84L428.245333 768V469.333333a21.333333 21.333333 0 0 1 21.333334-21.333333zM609.962667 547.541333a21.333333 21.333333 0 0 1 20.992 17.493334l0.341333 3.84V768a21.333333 21.333333 0 0 1-42.325333 3.84L588.629333 768V568.874667a21.333333 21.333333 0 0 1 21.333334-21.333334zM770.389333 580.736a21.333333 21.333333 0 0 1 20.949334 17.493333l0.384 3.84V768a21.333333 21.333333 0 0 1-42.325334 3.84l-0.341333-3.84v-165.930667a21.333333 21.333333 0 0 1 21.333333-21.333333zM767.402667 414.293333a21.333333 21.333333 0 0 0 19.584-19.072l0.042666-3.84-10.794666-140.245333-140.245334-10.794667a21.333333 21.333333 0 0 0-7.082666 41.898667l3.84 0.64 103.765333 8.021333 7.978667 103.765334a21.333333 21.333333 0 0 0 19.072 19.584l3.84 0.042666z" p-id="8653"></path></svg>