<?xml version="1.0" standalone="no"?><!DOCTYPE svg PUBLIC "-//W3C//DTD SVG 1.1//EN" "http://www.w3.org/Graphics/SVG/1.1/DTD/svg11.dtd"><svg t="1616742901017" class="icon" viewBox="0 0 1024 1024" version="1.1" xmlns="http://www.w3.org/2000/svg" p-id="8461" width="128" height="128" xmlns:xlink="http://www.w3.org/1999/xlink"><defs><style type="text/css"></style></defs><path d="M995.69 921.61L804.23 730.19c59.45-69.3 91.45-153.97 96.21-240.05l51.06 0.02c12.41 0 22.49-10.06 22.49-22.49 0-12.41-10.06-22.49-22.49-22.49l-51.06-0.02c-5.3-95.79-44.01-190.06-117.02-263.07-157.46-157.46-413.69-157.46-571.15 0-72.59 72.59-111.28 166.2-116.94 261.42H44.21c-12.43 0-22.49 10.06-22.49 22.49 0 12.43 10.06 22.49 22.49 22.49h50.96c4.94 96.36 43.66 191.3 117.1 264.73 78.73 78.73 182.16 118.1 285.57 118.1 99.03 0 197.84-36.52 275.19-108.72l190.85 190.81c4.39 4.39 10.15 6.59 15.9 6.59s11.51-2.2 15.9-6.59c8.8-8.78 8.8-23.01 0.01-31.8zM751.62 721.42c-139.93 139.93-367.62 139.93-507.55 0s-139.93-367.6 0-507.53c69.97-69.97 161.87-104.95 253.78-104.95s183.81 34.98 253.78 104.95c139.92 139.93 139.92 367.6-0.01 507.53z" p-id="8462"></path><path d="M766.82 443.51h-53.63l-64.52-115.84c-4.28-7.71-12.72-12.19-21.46-11.49-8.78 0.72-16.36 6.48-19.35 14.78l-92.59 255.99-87.4-336.96a22.457 22.457 0 0 0-21.52-16.84h-0.24c-10.06 0-18.89 6.68-21.63 16.36l-54.95 194h-96.8c-12.43 0-22.49 10.06-22.49 22.49 0 12.43 10.06 22.49 22.49 22.49h113.8c10.06 0 18.89-6.68 21.63-16.36l37-130.6 84.81 326.99c2.46 9.55 10.87 16.36 20.71 16.82 0.35 0.02 0.7 0.02 1.05 0.02 9.44 0 17.92-5.91 21.15-14.85l100.49-277.87 46.93 84.28a22.494 22.494 0 0 0 19.65 11.55h66.85c12.43 0 22.49-10.06 22.49-22.49 0.02-12.41-10.04-22.47-22.47-22.47z" p-id="8463"></path></svg>