<?xml version="1.0" standalone="no"?><!DOCTYPE svg PUBLIC "-//W3C//DTD SVG 1.1//EN" "http://www.w3.org/Graphics/SVG/1.1/DTD/svg11.dtd"><svg t="1611804000709" class="icon" viewBox="0 0 1024 1024" version="1.1" xmlns="http://www.w3.org/2000/svg" p-id="1938" xmlns:xlink="http://www.w3.org/1999/xlink" width="200" height="200"><defs><style type="text/css"></style></defs><path d="M638.5 564.8l-68.9-9.8 54.3-42.2-42.5-73.8-64.5 26 26-63.7-73.8-42.6-42.9 54.7-9.4-68.2h-85.2l-9.8 68.9-42.2-54.3-73.8 42.6 26 64.5-63.7-26-42.6 73.8 54.7 42.9L112 567v85l68.9 9.8-54.4 42.2 42.6 73.8 64.5-26-26 63.7 73.8 42.6 42.9-54.7 9.4 68.2h85.2l9.8-68.9 42.2 54.3 73.8-42.6-26-64.5 63.7 26 42.6-73.8-54.7-42.9 68.2-9.4v-85z m-28 60.7l-66.9 9.2-2.1 9.6c-1 4.7-2.2 9.4-3.6 13.9l-2.8 9.2 53.4 41.8-18.2 31.5-62.5-25.4-6.6 7.3c-3.1 3.5-6.5 6.9-10.1 10.2l-7 6.5 25.4 63-31.5 18.3-41.4-53.2-9.3 3c-4.6 1.5-9.3 2.7-13.9 3.8l-9.4 2.2-9.5 67.2h-36.4l-9.2-66.8-9.6-2.1c-4.7-1-9.4-2.2-13.9-3.6l-9.2-2.8-41.8 53.4-31.5-18.2 25.4-62.5-7.2-6.6c-3.5-3.2-6.9-6.5-10.2-10.1l-6.5-7-63 25.4-18.4-31.6 53.2-41.4-3-9.3c-1.5-4.6-2.7-9.3-3.8-13.9l-2.2-9.4-67.2-9.5v-36.4l66.8-9.2 2.1-9.6c1-4.7 2.2-9.4 3.6-13.9l2.8-9.2-53.3-41.9 18.2-31.5 62.5 25.4 6.6-7.2c3.2-3.5 6.5-6.9 10.1-10.2l7-6.5-25.4-63 31.5-18.2 41.4 53.2 9.3-3c4.6-1.5 9.3-2.7 13.9-3.8l9.4-2.2 9.5-67.2h36.4l9.2 66.8 9.6 2.1c4.7 1 9.4 2.2 13.9 3.6l9.2 2.8 41.8-53.4 31.5 18.2-25.4 62.5 7.3 6.6c3.5 3.1 6.9 6.5 10.2 10.1l6.5 7 63-25.4 18.2 31.5-53 41.4 3 9.3c1.5 4.6 2.7 9.3 3.8 13.9l2.2 9.4 67.2 9.5v36.4z" fill="#040000" p-id="1939"></path><path d="M912 353.8l-42-6 33.1-25.8-26-45-39.3 16 15.8-38.9-45-26-26.1 33.4-5.7-41.6h-51.9l-6 42-25.8-33.1-45 26 15.8 39.3-38.9-15.8-26 45 33.4 26.1-41.6 5.7V407l42 6-33.1 25.8 26 45L665 468l-15.8 38.9 45 26 26.1-33.4 5.7 41.6h51.9l6-42 25.8 33.1 45-26-15.8-39.3 38.9 15.8 26-45-33.4-26.1 41.6-5.7v-52.1z m-17.1 37.1l-40.8 5.6-1.3 5.9c-0.6 2.9-1.4 5.7-2.2 8.5l-1.7 5.6 32.6 25.5-11.1 19.2-38.1-15.5-4 4.4c-1.9 2.1-4 4.2-6.2 6.2l-4.3 4 15.5 38.4-19.2 11.1-25.2-32.4-5.7 1.8c-2.8 0.9-5.7 1.7-8.5 2.3l-5.7 1.3-5.8 41H741l-5.6-40.7-5.9-1.3c-2.9-0.6-5.7-1.4-8.5-2.2l-5.6-1.7-25.5 32.6-19.2-11.1 15.5-38.1-4.4-4c-2.1-1.9-4.2-4-6.2-6.2l-4-4.3-38.4 15.5-11.2-19.2 32.4-25.2-1.8-5.7c-0.9-2.8-1.7-5.7-2.3-8.5L649 398l-41-5.8V370l40.7-5.6 1.3-5.9c0.6-2.9 1.4-5.7 2.2-8.5l1.7-5.6-32.6-25.5 11.1-19.2 38.1 15.5 4-4.4c1.9-2.1 4-4.2 6.2-6.2l4.3-4-15.5-38.4 19.2-11.1 25.2 32.4 5.7-1.8c2.8-0.9 5.7-1.7 8.5-2.3l5.7-1.3 5.8-41H762l5.6 40.7 5.9 1.3c2.9 0.6 5.7 1.4 8.5 2.2l5.6 1.7 25.5-32.6 19.2 11.1-15.5 38.1 4.4 4c2.1 1.9 4.2 4 6.2 6.2l4 4.3 38.4-15.5 11.1 19.2-32.4 25.2 1.8 5.7c0.9 2.8 1.7 5.7 2.3 8.5l1.3 5.7 41 5.8v22.2z" fill="#040000" p-id="1940"></path><path d="M568.1 232.8l-25.2-3.6 19.9-15.5-15.6-27-23.6 9.5 9.5-23.3-27-15.6-15.7 20-3.4-25h-31.2l-3.6 25.2-15.5-19.9-27 15.6 9.5 23.6-23.3-9.5-15.6 27 20 15.7-25 3.4v31.2l25.2 3.6-19.9 15.5 15.6 27 23.6-9.5-9.5 23.3 27 15.6 15.7-20 3.4 25h31.2l3.6-25.2 15.5 19.9 27-15.6-9.5-23.6 23.3 9.5 15.6-27-20-15.7 25-3.4v-31.2zM557.8 255l-24.5 3.4-0.8 3.5c-0.4 1.7-0.8 3.4-1.3 5.1l-1 3.4 19.6 15.3-6.7 11.5-22.9-9.3-2.4 2.7c-1.1 1.3-2.4 2.5-3.7 3.7l-2.6 2.4 9.3 23.1-11.5 6.7-15.2-19.5-3.4 1.1c-1.7 0.5-3.4 1-5.1 1.4l-3.4 0.8-3.5 24.6h-13.3l-3.4-24.5-3.5-0.8c-1.7-0.4-3.4-0.8-5.1-1.3l-3.4-1-15.3 19.6-11.5-6.7 9.3-22.9-2.6-2.4c-1.3-1.2-2.5-2.4-3.7-3.7l-2.4-2.6-23.1 9.3-6.7-11.5 19.5-15.2-1.1-3.4c-0.5-1.7-1-3.4-1.4-5.1l-0.8-3.4-24.6-3.5v-13.3L410 239l0.8-3.5c0.4-1.7 0.8-3.4 1.3-5.1l1-3.4-19.6-15.3 6.7-11.5 22.9 9.3 2.4-2.6c1.2-1.3 2.4-2.5 3.7-3.7l2.6-2.4-9.3-23.1L434 171l15.2 19.5 3.4-1.1c1.7-0.5 3.4-1 5.1-1.4l3.4-0.8 3.5-24.6H478l3.4 24.5 3.5 0.8c1.7 0.4 3.4 0.8 5.1 1.3l3.4 1 15.3-19.6 11.5 6.7-9.3 22.9 2.7 2.4c1.3 1.1 2.5 2.4 3.7 3.7l2.4 2.6 23.1-9.3 6.7 11.5-19.5 15.2 1.1 3.4c0.5 1.7 1 3.4 1.4 5.1l0.8 3.4 24.6 3.5V255z" fill="#040000" p-id="1941"></path><path d="M375.3 608.4m-54.3 0a54.3 54.3 0 1 0 108.6 0 54.3 54.3 0 1 0-108.6 0Z" p-id="1942"></path><path d="M751.5 380.4m-54.3 0a54.3 54.3 0 1 0 108.6 0 54.3 54.3 0 1 0-108.6 0Z" p-id="1943"></path><path d="M471.7 248.7m-33.4 0a33.4 33.4 0 1 0 66.8 0 33.4 33.4 0 1 0-66.8 0Z" p-id="1944"></path></svg>